:SAMPLES-PER-SECOND 30
:FULLY-SPECIFIED
:DEGREES
32
root  71.9723 40.2661 -1.49718 -171.272 -87.1128 170.567
RightUpLeg  1.72242 -9.8804 -10.1327
RightLeg  3.62704 2.06676 2.93078
RightFoot  -3.01005 -0.39956 5.19485
RightToes  1.74622e-010 0 -3.6325e-017
Spine  -1.72334 -0.462204 2.87115
Spine1  13.7289 -0.00618847 -1.99288
HEad  7.26295 5.06732 -5.60116
LeftShoulder1  8.21669 -11.4459 -47.9668
LeftArm  -4.31069 15.603 -27.5752
LeftForeArm  19.8238 -18.3804 -4.48592
LeftHand  -0.244104 0.0205437 5.32207
RightShoulder  6.58632 10.1097 42.1072
RightArm  5.00119 -10.5275 27.5958
RightForeArm  5.74728 12.072 8.30342
RightHand  -0.313624 -1.95949 -10.3651
LeftUpLeg  0.023012 5.81393 1.47963
LeftLeg  8.178 10.0615 -1.58893
LeftFoot  -8.6745 0.0564003 -0.181856
LeftToes  1.00041e-010 1.90862e-010 2.54823e-011
33
root  71.8796 40.1691 -1.26713 -168.717 -87.5178 167.437
RightUpLeg  1.78918 -10.2966 -10.6808
RightLeg  5.36613 2.31577 2.68845
RightFoot  -4.29015 -0.376833 5.65021
RightToes  1.74622e-010 0 -3.6325e-017
Spine  -1.32034 -0.451648 2.631
Spine1  13.7579 -0.0149723 -2.03242
HEad  8.14463 4.51198 -5.34675
LeftShoulder1  8.23877 -11.5855 -47.6476
LeftArm  -2.28496 13.8908 -25.6667
LeftForeArm  24.5464 -16.364 -5.11955
LeftHand  -0.244104 0.0205437 5.32207
RightShoulder  6.46515 10.043 41.4941
RightArm  7.21949 -9.71512 25.7675
RightForeArm  5.78458 11.4452 8.86727
RightHand  -0.423058 -1.16552 -11.5638
LeftUpLeg  0.23808 5.87448 0.979466
LeftLeg  9.37955 9.37003 -1.15685
LeftFoot  -10.3071 0.0655279 -0.410029
LeftToes  1.00041e-010 1.90862e-010 2.54823e-011
34
root  71.7844 39.9992 -1.07298 -163.609 -87.4863 161.882
RightUpLeg  0.447202 -10.6627 -10.8793
RightLeg  9.15055 3.11565 1.73052
RightFoot  -6.13981 -0.352008 6.86348
RightToes  1.74622e-010 0 -3.6325e-017
Spine  -0.9102 -0.282403 1.56333
Spine1  13.6142 0.00581973 -1.78384
HEad  8.95269 4.31215 -5.02196
LeftShoulder1  8.1406 -11.5749 -47.1024
LeftArm  -2.56708 12.5096 -24.6114
LeftForeArm  27.3834 -14.2322 -5.81166
LeftHand  -0.244104 0.0205437 5.32207
RightShoulder  6.31056 9.89535 40.9059
RightArm  7.29027 -8.88867 24.4795
RightForeArm  6.75637 10.5378 9.21005
RightHand  -0.485697 -0.672455 -11.9398
LeftUpLeg  0.112505 6.42665 0.568694
LeftLeg  11.2408 8.69442 -0.965935
LeftFoot  -12.1522 0.0684315 -0.629999
LeftToes  1.00041e-010 1.90862e-010 2.54823e-011
35
root  71.7119 39.7977 -0.887693 -159.367 -86.8923 157.193
RightUpLeg  -2.6796 -8.88426 -10.8196
RightLeg  15.6828 1.19586 0.0858405
RightFoot  -6.98067 -0.384265 8.73945
RightToes  1.74622e-010 0 -3.6325e-017
Spine  -0.0711164 -0.0621776 0.229781
Spine1  13.2413 0.0957797 -1.67359
HEad  9.32892 4.53914 -4.71741
LeftShoulder1  7.96632 -11.3949 -46.6407
LeftArm  -3.52027 11.4848 -23.8541
LeftForeArm  28.7691 -12.7381 -6.18009
LeftHand  -0.244104 0.0205437 5.32207
RightShoulder  6.23864 9.83966 40.5831
RightArm  5.87345 -8.07479 23.8351
RightForeArm  7.17787 9.90724 9.19159
RightHand  -0.482454 -0.762239 -12.0862
LeftUpLeg  -0.0714771 7.21123 0.0469448
LeftLeg  13.2665 8.39341 -0.813931
LeftFoot  -13.8904 0.0656686 -0.795517
LeftToes  1.00041e-010 1.90862e-010 2.54823e-011
36
root  71.6444 39.6372 -0.685932 -158.862 -85.8276 156.06
RightUpLeg  -7.06033 -4.39874 -10.9167
RightLeg  24.3959 -3.8985 -2.16382
RightFoot  -5.41035 -0.544635 9.80112
RightToes  1.74622e-010 0 -3.6325e-017
Spine  1.36423 0.125623 -0.816699
Spine1  12.7675 0.273425 -1.83154
HEad  8.97287 5.18928 -4.48085
LeftShoulder1  7.88397 -11.26 -46.5776
LeftArm  -4.34132 11.0853 -22.7615
LeftForeArm  28.2229 -12.4871 -6.11402
LeftHand  -0.244104 0.0205437 5.32207
RightShoulder  6.23188 9.83665 40.5451
RightArm  3.61366 -7.27828 23.8765
RightForeArm  5.08122 9.78116 8.97309
RightHand  -0.528489 -0.786149 -13.2671
LeftUpLeg  0.26781 7.68389 -0.691641
LeftLeg  14.5341 8.84891 -0.530753
LeftFoot  -15.2092 0.0633351 -0.841911
LeftToes  1.00041e-010 1.90862e-010 2.54823e-011
37
root  71.5314 39.5404 -0.495686 -160.865 -84.5729 157.422
RightUpLeg  -11.7913 -1.58161 -10.8259
RightLeg  32.7979 -5.82404 -4.20898
RightFoot  -2.48713 -0.715287 9.04242
RightToes  1.74622e-010 0 -3.6325e-017
Spine  2.89692 0.275875 -1.47397
Spine1  12.2843 0.49707 -2.09105
HEad  8.12051 6.16513 -4.40113
LeftShoulder1  7.97777 -11.3233 -46.9383
LeftArm  -4.66906 11.3523 -21.165
LeftForeArm  25.3416 -13.1334 -5.9001
LeftHand  -0.244104 0.0205437 5.32207
RightShoulder  6.24475 9.82344 40.6798
RightArm  1.08579 -6.85355 24.6323
RightForeArm  1.55621 10.3533 8.58748
RightHand  -0.685169 -0.126698 -15.116
LeftUpLeg  1.02707 7.89377 -1.40394
LeftLeg  15.0106 9.78746 -0.193297
LeftFoot  -16.1032 0.0667944 -0.78173
LeftToes  1.00041e-010 1.90862e-010 2.54823e-011
38
root  71.3279 39.491 -0.347705 -163.994 -83.5114 160.205
RightUpLeg  -15.9136 -0.711564 -10.1613
RightLeg  37.7812 -4.25315 -3.7813
RightFoot  -0.698215 -0.707708 7.51366
RightToes  1.74622e-010 0 -3.6325e-017
Spine  3.94416 0.362451 -1.6919
Spine1  11.7615 0.690597 -2.39947
HEad  7.48483 7.07355 -4.57055
LeftShoulder1  8.19176 -11.5252 -47.5635
LeftArm  -4.37993 11.8342 -19.4575
LeftForeArm  21.9951 -13.7223 -5.84797
LeftHand  -0.244104 0.0205437 5.32207
RightShoulder  6.2788 9.83091 40.8955
RightArm  -0.765333 -7.31009 26.0225
RightForeArm  -1.43142 11.9053 7.97205
RightHand  -0.869194 0.810946 -16.3415
LeftUpLeg  1.76722 8.13331 -1.70868
LeftLeg  15.1549 10.6403 -0.0265161
LeftFoot  -16.7538 0.0662833 -0.718893
LeftToes  1.00041e-010 1.90862e-010 2.54823e-011
39
root  71.0231 39.4717 -0.229222 -167.661 -82.8458 163.861
RightUpLeg  -18.7975 -1.6991 -8.81681
RightLeg  37.9376 -1.8187 -1.81064
RightFoot  -0.380956 -0.707297 7.33195
RightToes  1.74622e-010 0 -3.6325e-017
Spine  4.52005 0.335944 -1.44623
Spine1  11.143 0.794878 -2.77114
HEad  7.50423 7.44105 -4.96973
LeftShoulder1  8.39163 -11.7043 -48.1601
LeftArm  -4.0223 12.1772 -18.2755
LeftForeArm  20.6095 -13.8511 -5.89795
LeftHand  -0.244104 0.0205437 5.32207
RightShoulder  6.31879 9.85255 41.1053
RightArm  -0.990069 -8.62912 27.8198
RightForeArm  -4.41033 14.2378 7.28813
RightHand  -0.967186 1.32303 -16.8014
LeftUpLeg  2.42823 8.28155 -1.55149
LeftLeg  15.071 11.2539 -0.124916
LeftFoot  -17.3507 0.0604323 -0.828471
LeftToes  1.00041e-010 1.90862e-010 2.54823e-011
